<?xml version="1.0" standalone="no"?>
<!DOCTYPE svg PUBLIC "-//W3C//DTD SVG 20010904//EN"
 "http://www.w3.org/TR/2001/REC-SVG-20010904/DTD/svg10.dtd">
<svg version="1.0" xmlns="http://www.w3.org/2000/svg"
 width="350.000000pt" height="350.000000pt" viewBox="0 0 350.000000 350.000000"
 preserveAspectRatio="xMidYMid meet">
<metadata>
Created by potrace 1.11, written by Peter Selinger 2001-2013
</metadata>
<g transform="translate(0.000000,350.000000) scale(0.100000,-0.100000)"
fill="#000000" stroke="none">
<path d="M839 2586 c-17 -56 -59 -193 -94 -306 -35 -113 -80 -257 -99 -320
-19 -63 -100 -328 -180 -588 -80 -261 -146 -475 -146 -476 0 -2 89 -3 198 -2
l197 1 50 199 50 200 279 1 c270 0 279 0 287 -20 5 -11 25 -85 44 -165 20 -80
40 -161 46 -181 l9 -36 200 0 c110 0 200 3 200 7 0 5 -18 66 -40 136 -23 71
-43 137 -45 147 -2 10 -22 76 -44 145 -21 70 -53 174 -71 232 -17 58 -43 141
-57 185 -13 44 -49 161 -79 260 -31 99 -73 239 -95 310 -23 72 -49 159 -60
195 -11 36 -28 90 -38 120 l-18 55 -232 1 -231 1 -31 -101z m274 -247 c3 -13
46 -187 97 -387 51 -199 90 -365 87 -369 -8 -7 -386 -10 -398 -3 -4 3 -1 33 7
65 9 33 17 67 19 75 2 8 36 143 75 300 40 157 77 305 82 329 11 46 22 42 31
-10z"/>
<path d="M2050 1790 l0 -897 525 0 c289 0 525 3 526 6 0 3 2 17 4 31 2 14 8
61 14 105 6 44 13 99 17 123 l6 42 -356 0 -356 0 0 744 0 743 -190 0 -190 0 0
-897z"/>
</g>
</svg>
