<?xml version="1.0" standalone="no"?>
<!DOCTYPE svg PUBLIC "-//W3C//DTD SVG 20010904//EN"
 "http://www.w3.org/TR/2001/REC-SVG-20010904/DTD/svg10.dtd">
<svg version="1.0" xmlns="http://www.w3.org/2000/svg"
 width="350.000000pt" height="350.000000pt" viewBox="0 0 350.000000 350.000000"
 preserveAspectRatio="xMidYMid meet">
<metadata>
Created by potrace 1.11, written by Peter Selinger 2001-2013
</metadata>
<g transform="translate(0.000000,350.000000) scale(0.100000,-0.100000)"
fill="#000000" stroke="none">
<path d="M1360 3226 c0 -3 -39 -130 -86 -283 -47 -153 -93 -300 -101 -328 -8
-27 -44 -144 -80 -260 -35 -115 -80 -262 -100 -325 -19 -63 -55 -180 -80 -260
-25 -80 -53 -172 -63 -205 -64 -212 -105 -345 -249 -812 -89 -287 -161 -526
-161 -530 0 -4 149 -8 330 -8 l331 0 9 35 c16 61 82 324 85 340 2 8 8 35 15
60 7 25 14 53 16 64 2 10 10 42 18 70 7 28 17 63 20 79 l6 27 473 0 473 0 24
-97 c13 -54 25 -102 26 -108 1 -5 23 -91 49 -190 26 -99 50 -196 54 -215 15
-70 -8 -66 359 -65 222 0 332 3 332 10 0 9 -22 83 -60 200 -8 26 -129 423
-236 775 -20 63 -56 180 -81 260 -25 80 -51 165 -58 190 -16 59 -147 485 -165
540 -5 14 -73 234 -150 490 -78 256 -148 483 -155 505 l-13 40 -391 3 c-215 1
-391 0 -391 -2z m480 -861 c50 -198 104 -410 120 -471 16 -61 31 -122 34 -135
3 -13 25 -103 50 -199 25 -96 46 -180 46 -185 0 -7 -113 -10 -332 -9 -183 1
-340 2 -349 3 -15 1 -13 14 12 109 16 59 31 116 34 127 2 11 6 30 9 43 3 13 8
32 11 42 3 10 8 27 10 37 2 10 54 218 115 463 61 245 113 454 116 464 7 38 27
91 30 81 2 -5 44 -172 94 -370z"/>
</g>
</svg>
